<?xml version="1.0" encoding="UTF-8"?>
<svg width="206px" height="61px" viewBox="0 0 206 61" version="1.1" xmlns="http://www.w3.org/2000/svg" xmlns:xlink="http://www.w3.org/1999/xlink">
    <!-- Generator: Sketch 53.2 (72643) - https://sketchapp.com -->
    <title>Download_App_Store_Image</title>
    <desc>Created with Sketch.</desc>
    <g id="Download_App_Store_Image" stroke="none" stroke-width="1" fill="none" fill-rule="evenodd">
        <g id="Group-5-Copy" transform="translate(-1.000000, 0.000000)" fill-rule="nonzero">
            <g id="Download_on_the_App_Store_Badge_US-UK_135x40" transform="translate(0.827055, 0.000000)">
                <g id="US_UK_Download_on_the">
                    <g id="Group">
                        <path d="M198.670978,61 L7.2161037,61 C3.23801481,61 0,57.7548 0,53.782175 L0,7.20715 C0,3.233 3.23801481,0 7.2161037,0 L198.670978,0 C202.647541,0 206,3.233 206,7.20715 L206,53.782175 C206,57.7548 202.647541,61 198.670978,61 L198.670978,61 Z" id="Shape" fill="#A6A6A6"></path>
                        <path d="M204.522904,53.7837 C204.522904,57.0106 201.907467,59.62445 198.672504,59.62445 L7.2161037,59.62445 C3.98266667,59.62445 1.35807407,57.0106 1.35807407,53.7837 L1.35807407,7.205625 C1.35807407,3.98025 3.98266667,1.35725 7.2161037,1.35725 L198.670978,1.35725 C201.907467,1.35725 204.521378,3.98025 204.521378,7.205625 L204.522904,53.7837 L204.522904,53.7837 Z" id="Shape" fill="#000000"></path>
                        <g transform="translate(19.401058, 9.150000)" fill="#FFFFFF" id="Shape">
                            <path d="M26.5720381,21.0206 C26.5277862,16.105525 30.5989566,13.714325 30.7851196,13.603 C28.4794455,10.243425 24.905727,9.7844 23.6498899,9.7478 C20.6483937,9.432125 17.736927,11.542725 16.2079492,11.542725 C14.6484529,11.542725 12.2939492,9.7783 9.75633439,9.83015 C6.49085291,9.880475 3.43594921,11.76995 1.76048254,14.70405 C-1.69726561,20.686625 0.881549206,29.47825 4.19433439,34.314025 C5.85148995,36.68235 7.78788995,39.3267 10.3224529,39.233675 C12.8020825,39.1315 13.7283196,37.653775 16.7206603,37.653775 C19.6855344,37.653775 20.5553122,39.233675 23.1402307,39.1742 C25.8014455,39.1315 27.4769122,36.7952 29.0760825,34.405525 C30.9911196,31.691025 31.7601862,29.0177 31.7907048,28.88045 C31.7281418,28.8591 26.6223937,26.911675 26.5720381,21.0206 Z"></path>
                            <path d="M21.6890751,6.56665 C23.0227344,4.899825 23.9352381,2.63215 23.6819344,0.330925 C21.7516381,0.416325 19.3376233,1.6653 17.9475048,3.295525 C16.7176085,4.732075 15.6189418,7.086675 15.902764,9.300975 C18.0711048,9.462625 20.2974307,8.20755 21.6890751,6.56665 Z"></path>
                        </g>
                        <g transform="translate(64.088889, 27.450000)" fill="#FFFFFF" id="Shape">
                            <path d="M17.7694074,20.5936 L14.3040296,20.5936 L12.4057778,14.632375 L5.80767407,14.632375 L3.99945185,20.5936 L0.62562963,20.5936 L7.1626963,0.2989 L11.2002963,0.2989 L17.7694074,20.5936 Z M11.8335556,12.131375 L10.1168889,6.832 C9.9353037,6.290625 9.59502222,5.015725 9.09299259,3.008825 L9.03195556,3.008825 C8.83205926,3.871975 8.51008889,5.146875 8.06757037,6.832 L6.38142222,12.131375 L11.8335556,12.131375 L11.8335556,12.131375 Z"></path>
                            <path d="M34.5805333,13.0967 C34.5805333,15.5855 33.9076,17.55275 32.5617333,18.996925 C31.3562519,20.2825 29.8593185,20.924525 28.0724593,20.924525 C26.1436889,20.924525 24.7581481,20.232175 23.9143111,18.847475 L23.8532741,18.847475 L23.8532741,26.55635 L20.6,26.55635 L20.6,10.777175 C20.6,9.212525 20.5588,7.6067 20.4794519,5.9597 L23.340563,5.9597 L23.5221481,8.279225 L23.5831852,8.279225 C24.6681185,6.531575 26.3145926,5.659275 28.5241333,5.659275 C30.2514815,5.659275 31.6934815,6.34095 32.8470815,7.705825 C34.0037333,9.072225 34.5805333,10.868675 34.5805333,13.0967 Z M31.2662222,13.21565 C31.2662222,11.7913 30.9457778,10.61705 30.301837,9.6929 C29.5983852,8.7291 28.653837,8.2472 27.4697185,8.2472 C26.6670815,8.2472 25.9376889,8.5156 25.2861185,9.044775 C24.6330222,9.578525 24.205763,10.27545 24.0058667,11.1386 C23.9051556,11.5412 23.8548,11.8706 23.8548,12.12985 L23.8548,14.56985 C23.8548,15.6343 24.1813481,16.532525 24.8344444,17.26605 C25.4875407,17.999575 26.3359556,18.365575 27.3796889,18.365575 C28.6050074,18.365575 29.5587111,17.892825 30.2408,16.950375 C30.9244148,16.0064 31.2662222,14.762 31.2662222,13.21565 Z"></path>
                            <path d="M51.4221778,13.0967 C51.4221778,15.5855 50.7492444,17.55275 49.4018519,18.996925 C48.1978963,20.2825 46.700963,20.924525 44.9141037,20.924525 C42.9853333,20.924525 41.5997926,20.232175 40.7574815,18.847475 L40.6964444,18.847475 L40.6964444,26.55635 L37.4431704,26.55635 L37.4431704,10.777175 C37.4431704,9.212525 37.4019704,7.6067 37.3226222,5.9597 L40.1837333,5.9597 L40.3653185,8.279225 L40.4263556,8.279225 C41.509763,6.531575 43.156237,5.659275 45.3673037,5.659275 C47.0931259,5.659275 48.5351259,6.34095 49.6917778,7.705825 C50.8438519,9.072225 51.4221778,10.868675 51.4221778,13.0967 Z M48.1078667,13.21565 C48.1078667,11.7913 47.7858963,10.61705 47.1419556,9.6929 C46.4385037,8.7291 45.4970074,8.2472 44.311363,8.2472 C43.5072,8.2472 42.7793333,8.5156 42.126237,9.044775 C41.4731407,9.578525 41.0474074,10.27545 40.8475111,11.1386 C40.7483259,11.5412 40.6964444,11.8706 40.6964444,12.12985 L40.6964444,14.56985 C40.6964444,15.6343 41.0229926,16.532525 41.673037,17.26605 C42.3261333,17.99805 43.1745481,18.365575 44.2213333,18.365575 C45.4466519,18.365575 46.4003556,17.892825 47.0824444,16.950375 C47.7660593,16.0064 48.1078667,14.762 48.1078667,13.21565 Z"></path>
                            <path d="M70.2521037,14.9023 C70.2521037,16.6286 69.6524148,18.033125 68.4484593,19.1174 C67.1254815,20.302325 65.2836889,20.894025 62.9169778,20.894025 C60.7318519,20.894025 58.9800889,20.473125 57.6540593,19.6298 L58.4078667,16.919875 C59.8361333,17.783025 61.4032593,18.216125 63.1107704,18.216125 C64.3360889,18.216125 65.2897926,17.938575 65.9749333,17.386525 C66.6570222,16.834475 66.9973037,16.093325 66.9973037,15.169175 C66.9973037,14.345675 66.7165333,13.6518 66.1534667,13.089075 C65.5934519,12.52635 64.6580593,12.003275 63.3518667,11.51985 C59.7964593,10.194625 58.0202815,8.2533 58.0202815,5.70045 C58.0202815,4.0321 58.6428593,2.664175 59.8895407,1.599725 C61.1316444,0.53375 62.7888,0.001525 64.8610074,0.001525 C66.7089037,0.001525 68.2439852,0.3233 69.4693037,0.965325 L68.6559852,3.615775 C67.5115407,2.993575 66.2175556,2.682475 64.7694519,2.682475 C63.6250074,2.682475 62.7308148,2.9646 62.0899259,3.5258 C61.5482222,4.027525 61.2766074,4.63905 61.2766074,5.363425 C61.2766074,6.165575 61.5863704,6.82895 62.2089481,7.3505 C62.7506519,7.8324 63.7348741,8.35395 65.1631407,8.916675 C66.9103259,9.6197 68.1936296,10.441675 69.0191556,11.384125 C69.8416296,12.323525 70.2521037,13.4993 70.2521037,14.9023 Z"></path>
                            <path d="M81.0083556,8.3997 L77.4224296,8.3997 L77.4224296,15.504675 C77.4224296,17.3118 78.054163,18.2146 79.3206815,18.2146 C79.9020593,18.2146 80.3842519,18.164275 80.7657333,18.063625 L80.855763,20.5326 C80.2148741,20.772025 79.371037,20.8925 78.3257778,20.8925 C77.0409481,20.8925 76.0368889,20.500575 75.3120741,19.71825 C74.5903111,18.9344 74.2271407,17.61985 74.2271407,15.773075 L74.2271407,8.39665 L72.0908444,8.39665 L72.0908444,5.95665 L74.2271407,5.95665 L74.2271407,3.277225 L77.4224296,2.313425 L77.4224296,5.95665 L81.0083556,5.95665 L81.0083556,8.3997 Z"></path>
                            <path d="M97.1877481,13.156175 C97.1877481,15.40555 96.5438074,17.252325 95.2589778,18.6965 C93.9115852,20.183375 92.1232,20.924525 89.8938222,20.924525 C87.7453185,20.924525 86.0347556,20.21235 84.7590815,18.788 C83.4834074,17.36365 82.8455704,15.565675 82.8455704,13.39865 C82.8455704,11.130975 83.5017185,9.273525 84.8185926,7.82935 C86.1324148,6.38365 87.9055407,5.6608 90.1349185,5.6608 C92.2834222,5.6608 94.0122963,6.372975 95.316963,7.79885 C96.5651704,9.182025 97.1877481,10.9678 97.1877481,13.156175 Z M93.8124,13.2614 C93.8124,11.911775 93.524,10.7543 92.9395704,9.788975 C92.2574815,8.620825 91.2824148,8.038275 90.0189481,8.038275 C88.7112296,8.038275 87.7178519,8.62235 87.035763,9.788975 C86.4513333,10.755825 86.1629333,11.9316 86.1629333,13.3224 C86.1629333,14.672025 86.4513333,15.8295 87.035763,16.7933 C87.7392148,17.96145 88.7219111,18.544 89.9899556,18.544 C91.2320593,18.544 92.2071259,17.94925 92.9105778,16.7628 C93.5102667,15.779175 93.8124,14.6095 93.8124,13.2614 Z"></path>
                            <path d="M107.762415,8.819075 C107.440444,8.7596 107.097111,8.7291 106.736993,8.7291 C105.592548,8.7291 104.707511,9.160675 104.084933,10.02535 C103.54323,10.78785 103.271615,11.75165 103.271615,12.915225 L103.271615,20.5936 L100.019867,20.5936 L100.050385,10.56825 C100.050385,8.8816 100.009185,7.345925 99.9283111,5.961225 L102.761956,5.961225 L102.880978,8.761125 L102.971007,8.761125 C103.314341,7.79885 103.856044,7.02415 104.597644,6.443125 C105.322459,5.92005 106.105259,5.659275 106.949096,5.659275 C107.249704,5.659275 107.521319,5.680625 107.762415,5.71875 L107.762415,8.819075 Z"></path>
                            <path d="M122.312119,12.5843 C122.312119,13.16685 122.27397,13.6579 122.193096,14.058975 L112.433274,14.058975 C112.471422,15.504675 112.942933,16.6103 113.849333,17.3728 C114.671807,18.054475 115.735378,18.396075 117.04157,18.396075 C118.486622,18.396075 119.805022,18.1658 120.990667,17.703725 L121.500326,19.960725 C120.114785,20.564625 118.478993,20.86505 116.591422,20.86505 C114.320844,20.86505 112.538563,20.1971 111.241526,18.862725 C109.947541,17.52835 109.299022,15.736475 109.299022,13.488625 C109.299022,11.28195 109.901763,9.444325 111.10877,7.9788 C112.372237,6.41415 114.079748,5.631825 116.228252,5.631825 C118.338607,5.631825 119.936252,6.41415 121.021185,7.9788 C121.880281,9.221675 122.312119,10.758875 122.312119,12.5843 Z M119.209911,11.740975 C119.231274,10.777175 119.01917,9.944525 118.578178,9.2415 C118.015111,8.337175 117.149911,7.885775 115.98563,7.885775 C114.922059,7.885775 114.056859,8.3265 113.396133,9.211 C112.85443,9.914025 112.532459,10.75735 112.433274,11.73945 L119.209911,11.73945 L119.209911,11.740975 Z"></path>
                        </g>
                        <g transform="translate(66.522304, 9.150000)" fill="#FFFFFF" id="Shape">
                            <path d="M8.32436287,6.113725 C8.32436287,7.90865 7.78571101,9.2598 6.70993324,10.167175 C5.71350361,11.0044 4.29744435,11.423775 2.46328138,11.423775 C1.55382953,11.423775 0.77560731,11.384125 0.124036939,11.304825 L0.124036939,1.49755 C0.97397768,1.3603 1.88953324,1.29015 2.87833324,1.29015 C4.62551842,1.29015 5.94239249,1.669875 6.83048138,2.429325 C7.82538509,3.2879 8.32436287,4.515525 8.32436287,6.113725 Z M6.63821472,6.15795 C6.63821472,4.994375 6.32997768,4.10225 5.71350361,3.48005 C5.09702953,2.859375 4.19673324,2.548275 3.01108879,2.548275 C2.50753324,2.548275 2.07874805,2.581825 1.72320731,2.651975 L1.72320731,10.1077 C1.92005175,10.1382 2.28017027,10.151925 2.80356287,10.151925 C4.02735546,10.151925 4.97190361,9.81185 5.63720731,9.1317 C6.30251101,8.45155 6.63821472,7.4603 6.63821472,6.15795 Z"></path>
                            <path d="M17.2647629,7.681425 C17.2647629,8.78705 16.9488962,9.6929 16.3171629,10.40355 C15.654911,11.134025 14.7775036,11.4985 13.6818888,11.4985 C12.6259481,11.4985 11.7851629,11.149275 11.1580073,10.447775 C10.5323777,9.7478 10.2195629,8.864825 10.2195629,7.800375 C10.2195629,6.687125 10.5415332,5.77365 11.1885258,5.064525 C11.8355184,4.3554 12.7052962,4.000075 13.800911,4.000075 C14.8568518,4.000075 15.7052666,4.3493 16.3476814,5.049275 C16.9580518,5.729425 17.2647629,6.607825 17.2647629,7.681425 Z M15.6060814,7.733275 C15.6060814,7.0699 15.4626443,6.501075 15.1772962,6.0268 C14.8415925,5.4534 14.3639777,5.1667 13.7429258,5.1667 C13.100511,5.1667 12.6122147,5.4534 12.276511,6.0268 C11.9896369,6.501075 11.8477258,7.07905 11.8477258,7.76225 C11.8477258,8.425625 11.9911629,8.99445 12.276511,9.468725 C12.6228962,10.042125 13.1050888,10.328825 13.7276666,10.328825 C14.3380369,10.328825 14.8171777,10.03755 15.1620369,9.453475 C15.4580666,8.97005 15.6060814,8.39665 15.6060814,7.733275 Z"></path>
                            <path d="M29.2524369,4.146475 L27.0016962,11.335325 L25.5368073,11.335325 L24.6044666,8.21365 C24.3679481,7.434375 24.1756814,6.659675 24.0261406,5.891075 L23.9971481,5.891075 C23.8582888,6.681025 23.6660221,7.4542 23.4188221,8.21365 L22.4284962,11.335325 L20.9468221,11.335325 L18.8303629,4.146475 L20.4737851,4.146475 L21.2871036,7.564 C21.4839481,8.37225 21.6456962,9.142375 21.7753999,9.871325 L21.8043925,9.871325 C21.9234147,9.270475 22.1202592,8.504925 22.3979777,7.57925 L23.4188221,4.148 L24.7219629,4.148 L25.7000814,7.50605 C25.9365999,8.324975 26.1288666,9.1134 26.2768814,9.87285 L26.3211332,9.87285 C26.429474,9.133225 26.5927481,8.3448 26.8094295,7.50605 L27.6822592,4.148 L29.2524369,4.148 L29.2524369,4.146475 Z"></path>
                            <path d="M37.5427925,11.335325 L35.9436221,11.335325 L35.9436221,7.217825 C35.9436221,5.949025 35.4614295,5.314625 34.4939925,5.314625 C34.0194295,5.314625 33.6364221,5.488475 33.3388666,5.8377 C33.0443629,6.186925 32.8948221,6.598675 32.8948221,7.0699 L32.8948221,11.3338 L31.2956518,11.3338 L31.2956518,6.20065 C31.2956518,5.5693 31.2758147,4.884575 31.2376666,4.143425 L32.6430443,4.143425 L32.7178147,5.26735 L32.7620666,5.26735 C32.9482295,4.918125 33.2259481,4.6299 33.5906443,4.399625 C34.0240073,4.131225 34.5092518,3.9955 35.040274,3.9955 C35.7116814,3.9955 36.2701703,4.21205 36.7142147,4.646675 C37.2665999,5.1789 37.5427925,5.973425 37.5427925,7.028725 L37.5427925,11.335325 L37.5427925,11.335325 Z"></path>
                            <polygon points="41.9527184 11.335325 40.355074 11.335325 40.355074 0.8479 41.9527184 0.8479"></polygon>
                            <path d="M51.3676814,7.681425 C51.3676814,8.78705 51.0518147,9.6929 50.4200814,10.40355 C49.7578295,11.134025 48.8788962,11.4985 47.7848073,11.4985 C46.7273406,11.4985 45.8865555,11.149275 45.2609258,10.447775 C44.6352962,9.7478 44.3224814,8.864825 44.3224814,7.800375 C44.3224814,6.687125 44.6444518,5.77365 45.2914443,5.064525 C45.9384369,4.3554 46.8082147,4.000075 47.9023036,4.000075 C48.9597703,4.000075 49.8066592,4.3493 50.4505999,5.049275 C51.0609703,5.729425 51.3676814,6.607825 51.3676814,7.681425 Z M49.707474,7.733275 C49.707474,7.0699 49.5640369,6.501075 49.2786888,6.0268 C48.944511,5.4534 48.4653703,5.1667 47.8458443,5.1667 C47.2019036,5.1667 46.7136073,5.4534 46.3794295,6.0268 C46.0925555,6.501075 45.9506443,7.07905 45.9506443,7.76225 C45.9506443,8.425625 46.0940814,8.99445 46.3794295,9.468725 C46.7258147,10.042125 47.2080073,10.328825 47.8305851,10.328825 C48.4409555,10.328825 48.9185703,10.03755 49.2634295,9.453475 C49.5609851,8.97005 49.707474,8.39665 49.707474,7.733275 Z"></path>
                            <path d="M59.1071777,11.335325 L57.6712814,11.335325 L57.5522592,10.50725 L57.5080073,10.50725 C57.0166592,11.167575 56.3162592,11.4985 55.4068073,11.4985 C54.7277703,11.4985 54.1784369,11.280425 53.764911,10.847325 C53.3895332,10.453875 53.2018443,9.96435 53.2018443,9.383325 C53.2018443,8.504925 53.5680666,7.83545 54.3050888,7.37185 C55.0405851,6.90825 56.0751629,6.681025 57.4072962,6.6917 L57.4072962,6.5575 C57.4072962,5.610475 56.9098443,5.137725 55.9134147,5.137725 C55.2038592,5.137725 54.5782295,5.31615 54.0380518,5.66995 L53.7130295,4.62075 C54.3813851,4.207475 55.206911,4.000075 56.1804518,4.000075 C58.0603925,4.000075 59.0034147,4.991325 59.0034147,6.973825 L59.0034147,9.621225 C59.0034147,10.3395 59.038511,10.911375 59.1071777,11.335325 Z M57.4469703,8.864825 L57.4469703,7.75615 C55.6829999,7.72565 54.8010147,8.209075 54.8010147,9.2049 C54.8010147,9.58005 54.9017258,9.86065 55.1077258,10.048225 C55.3137258,10.2358 55.5761851,10.328825 55.8889999,10.328825 C56.2399629,10.328825 56.5680369,10.2175 56.8671184,9.996375 C57.1677258,9.773725 57.3523629,9.4916 57.4210295,9.145425 C57.4378147,9.06765 57.4469703,8.9731 57.4469703,8.864825 Z"></path>
                            <path d="M68.1940666,11.335325 L66.7749555,11.335325 L66.7001851,10.1809 L66.6559332,10.1809 C66.2027332,11.0593 65.4306147,11.4985 64.3456814,11.4985 C63.4789555,11.4985 62.7571925,11.158425 62.1849703,10.478275 C61.6127481,9.798125 61.3273999,8.91515 61.3273999,7.830875 C61.3273999,6.6673 61.6371629,5.72485 62.2597406,5.00505 C62.8624814,4.33405 63.6010295,3.99855 64.4799629,3.99855 C65.445874,3.99855 66.1218592,4.323375 66.5063925,4.97455 L66.536911,4.97455 L66.536911,0.8479 L68.1376073,0.8479 L68.1376073,9.398575 C68.1376073,10.09855 68.1559184,10.743625 68.1940666,11.335325 Z M66.536911,8.303625 L66.536911,7.104975 C66.536911,6.897575 66.5216518,6.729825 66.4926592,6.601725 C66.4026295,6.217425 66.2088369,5.894125 65.9143332,5.63335 C65.6167777,5.372575 65.2581851,5.241425 64.8446592,5.241425 C64.2480221,5.241425 63.7810888,5.4778 63.4377555,5.952075 C63.097474,6.42635 62.9250443,7.031775 62.9250443,7.7714 C62.9250443,8.48205 63.0883184,9.0585 63.4163925,9.502275 C63.7627777,9.975025 64.229711,10.2114 64.8141406,10.2114 C65.3390592,10.2114 65.7586888,10.014675 66.0776073,9.6197 C66.3858443,9.255225 66.536911,8.816025 66.536911,8.303625 Z"></path>
                            <path d="M81.8709406,7.681425 C81.8709406,8.78705 81.555074,9.6929 80.9233406,10.40355 C80.2610888,11.134025 79.3852073,11.4985 78.2880666,11.4985 C77.2336518,11.4985 76.3928666,11.149275 75.7641851,10.447775 C75.1385555,9.7478 74.8257406,8.864825 74.8257406,7.800375 C74.8257406,6.687125 75.147711,5.77365 75.7947036,5.064525 C76.4416962,4.3554 77.311474,4.000075 78.4086147,4.000075 C79.4630295,4.000075 80.3129703,4.3493 80.9538592,5.049275 C81.5642295,5.729425 81.8709406,6.607825 81.8709406,7.681425 Z M80.2137851,7.733275 C80.2137851,7.0699 80.0703481,6.501075 79.7849999,6.0268 C79.4477703,5.4534 78.9716814,5.1667 78.3491036,5.1667 C77.7082147,5.1667 77.2199184,5.4534 76.8826888,6.0268 C76.5958147,6.501075 76.4539036,7.07905 76.4539036,7.76225 C76.4539036,8.425625 76.5973406,8.99445 76.8826888,9.468725 C77.229074,10.042125 77.7112666,10.328825 78.3338443,10.328825 C78.9442147,10.328825 79.4248814,10.03755 79.7697406,9.453475 C80.0642443,8.97005 80.2137851,8.39665 80.2137851,7.733275 Z"></path>
                            <path d="M90.4695332,11.335325 L88.8718888,11.335325 L88.8718888,7.217825 C88.8718888,5.949025 88.3896962,5.314625 87.4207332,5.314625 C86.9461703,5.314625 86.5631629,5.488475 86.2671332,5.8377 C85.9711036,6.186925 85.8230888,6.598675 85.8230888,7.0699 L85.8230888,11.3338 L84.2223925,11.3338 L84.2223925,6.20065 C84.2223925,5.5693 84.2040814,4.884575 84.1659332,4.143425 L85.5697851,4.143425 L85.6445555,5.26735 L85.6888073,5.26735 C85.8764962,4.918125 86.1542147,4.6299 86.5173851,4.399625 C86.952274,4.131225 87.4359925,3.9955 87.9685406,3.9955 C88.6384221,3.9955 89.196911,4.21205 89.6409555,4.646675 C90.1948666,5.1789 90.4695332,5.973425 90.4695332,7.028725 L90.4695332,11.335325 L90.4695332,11.335325 Z"></path>
                            <path d="M101.231889,5.3436 L99.4709703,5.3436 L99.4709703,8.83585 C99.4709703,9.7234 99.7837851,10.167175 100.403311,10.167175 C100.690185,10.167175 100.92823,10.142775 101.115918,10.09245 L101.157118,11.304825 C100.841252,11.423775 100.4262,11.48325 99.9150147,11.48325 C99.2832814,11.48325 98.7919332,11.2911 98.4363925,10.9068 C98.0793258,10.5225 97.9023184,9.8759 97.9023184,8.968525 L97.9023184,5.3436 L96.8509555,5.3436 L96.8509555,4.146475 L97.9023184,4.146475 L97.9023184,2.828875 L99.4694443,2.356125 L99.4694443,4.14495 L101.230363,4.14495 L101.230363,5.3436 L101.231889,5.3436 Z"></path>
                            <path d="M109.697726,11.335325 L108.09703,11.335325 L108.09703,7.248325 C108.09703,5.9597 107.614837,5.314625 106.648926,5.314625 C105.907326,5.314625 105.400718,5.68825 105.123,6.4355 C105.075696,6.592575 105.04823,6.784725 105.04823,7.010425 L105.04823,11.3338 L103.450585,11.3338 L103.450585,0.8479 L105.04823,0.8479 L105.04823,5.180425 L105.078748,5.180425 C105.582304,4.392 106.304067,3.99855 107.239459,3.99855 C107.901711,3.99855 108.449518,4.2151 108.884407,4.649725 C109.426111,5.1911 109.697726,5.9963 109.697726,7.06075 L109.697726,11.335325 L109.697726,11.335325 Z"></path>
                            <path d="M118.4306,7.400825 C118.4306,7.687525 118.409237,7.928475 118.371089,8.1252 L113.575104,8.1252 C113.596467,8.83585 113.825355,9.377225 114.2694,9.752375 C114.675296,10.087875 115.198689,10.255625 115.839578,10.255625 C116.549133,10.255625 117.196126,10.142775 117.77903,9.91555 L118.029281,11.02575 C117.347192,11.3216 116.544555,11.469525 115.615267,11.469525 C114.501341,11.469525 113.623933,11.14165 112.989148,10.4859 C112.351311,9.83015 112.035444,8.950225 112.035444,7.846125 C112.035444,6.76185 112.329948,5.85905 112.923533,5.13925 C113.543059,4.37065 114.380792,3.98635 115.438259,3.98635 C116.472837,3.98635 117.258689,4.37065 117.789711,5.13925 C118.218496,5.74925 118.4306,6.504125 118.4306,7.400825 Z M116.904674,6.98755 C116.916881,6.513275 116.811592,6.104575 116.594911,5.759925 C116.317192,5.31615 115.894511,5.0935 115.322289,5.0935 C114.800422,5.0935 114.374689,5.31005 114.049667,5.744675 C113.784155,6.09085 113.626985,6.504125 113.575104,6.98755 L116.904674,6.98755 Z"></path>
                        </g>
                    </g>
                </g>
            </g>
        </g>
    </g>
</svg>