<?xml version="1.0" encoding="UTF-8"?>
<svg width="387px" height="198px" viewBox="0 0 387 198" version="1.1" xmlns="http://www.w3.org/2000/svg" xmlns:xlink="http://www.w3.org/1999/xlink">
    <!-- Generator: Sketch 54.1 (76490) - https://sketchapp.com -->
    <title>Artboard</title>
    <desc>Created with Sketch.</desc>
    <defs>
        <rect id="path-1" x="0" y="0" width="287" height="77" rx="9.60000014"></rect>
        <filter x="-8.0%" y="-26.0%" width="116.0%" height="159.7%" filterUnits="objectBoundingBox" id="filter-3">
            <feMorphology radius="0.5" operator="dilate" in="SourceAlpha" result="shadowSpreadOuter1"></feMorphology>
            <feOffset dx="0" dy="3" in="shadowSpreadOuter1" result="shadowOffsetOuter1"></feOffset>
            <feGaussianBlur stdDeviation="7" in="shadowOffsetOuter1" result="shadowBlurOuter1"></feGaussianBlur>
            <feComposite in="shadowBlurOuter1" in2="SourceAlpha" operator="out" result="shadowBlurOuter1"></feComposite>
            <feColorMatrix values="0 0 0 0 0   0 0 0 0 0   0 0 0 0 0  0 0 0 0.3 0" type="matrix" in="shadowBlurOuter1"></feColorMatrix>
        </filter>
        <linearGradient x1="22.555566%" y1="0%" x2="84.8225995%" y2="100%" id="linearGradient-4">
            <stop stop-color="#FFFFFF" offset="0%"></stop>
            <stop stop-color="#FFCEE4" offset="100%"></stop>
        </linearGradient>
        <path d="M8.97312132,7.81738064 L8.97312132,10.2498536 C8.97312132,10.6832792 8.66458367,10.8685713 8.28281133,10.6767833 C8.28281133,10.6767833 6.43374806,9.58694682 4.59696819,9.58694682 L1.77280002,9.58694682 C0.793709606,9.58694682 0,8.80240672 0,7.81738064 L0,1.76956618 C0,0.792261765 0.796304658,0 1.77280002,0 L7.2003213,0 C8.17941172,0 8.97312132,0.784540095 8.97312132,1.76956618 L8.97312132,7.81738064 Z" id="path-5"></path>
        <filter x="-2.2%" y="-1.9%" width="104.5%" height="107.4%" filterUnits="objectBoundingBox" id="filter-7">
            <feOffset dx="0" dy="0.4" in="SourceAlpha" result="shadowOffsetOuter1"></feOffset>
            <feComposite in="shadowOffsetOuter1" in2="SourceAlpha" operator="out" result="shadowOffsetOuter1"></feComposite>
            <feColorMatrix values="0 0 0 0 0.896045918   0 0 0 0 0.407770896   0 0 0 0 0.66475775  0 0 0 1 0" type="matrix" in="shadowOffsetOuter1"></feColorMatrix>
        </filter>
    </defs>
    <g id="Artboard" stroke="none" stroke-width="1" fill="none" fill-rule="evenodd">
        <g id="Group-3-Copy-2" transform="translate(50.000000, 60.000000)">
            <g id="banner-copy">
                <mask id="mask-2" fill="white">
                    <use xlink:href="#path-1"></use>
                </mask>
                <g id="bg" stroke-linecap="round" stroke-linejoin="round">
                    <use fill="black" fill-opacity="1" filter="url(#filter-3)" xlink:href="#path-1"></use>
                    <rect stroke-opacity="0.05" stroke="#000000" stroke-width="0.5" fill-opacity="0.949999988" fill="#E6E7E7" fill-rule="evenodd" x="-0.25" y="-0.25" width="287.5" height="77.5" rx="9.60000014"></rect>
                </g>
                <rect id="top-highlight" fill="#EEEFEF" mask="url(#mask-2)" x="0" y="0" width="287" height="28.9285714"></rect>
                <path d="M36.930335,18.8392857 L36.07721,18.8392857 L36.07721,13.2431919 L36.0162725,13.2431919 L33.7057256,18.8392857 L32.9338506,18.8392857 L30.6233037,13.2431919 L30.5623662,13.2431919 L30.5623662,18.8392857 L29.7092412,18.8392857 L29.7092412,11.5115512 L30.7705693,11.5115512 L33.2791631,17.6256138 L33.3604131,17.6256138 L35.8690069,11.5115512 L36.930335,11.5115512 L36.930335,18.8392857 Z M39.809632,18.8392857 L38.8955694,18.8392857 L38.8955694,11.5115512 L39.809632,11.5115512 L39.809632,18.8392857 Z M42.6787726,18.8392857 L41.7748664,18.8392857 L41.7748664,11.5115512 L42.6635382,11.5115512 L46.6397102,17.2142857 L46.7209602,17.2142857 L46.7209602,11.5115512 L47.6248664,11.5115512 L47.6248664,18.8392857 L46.7361946,18.8392857 L42.7600226,13.1568638 L42.6787726,13.1568638 L42.6787726,18.8392857 Z M49.5901008,11.5115512 L52.1037728,11.5115512 C53.190497,11.5115512 54.0385354,11.8331626 54.6479134,12.476395 C55.2572915,13.1196274 55.5619759,14.0184465 55.5619759,15.1728794 C55.5619759,16.3273123 55.2581378,17.2269778 54.6504525,17.8719029 C54.0427671,18.516828 53.1938824,18.8392857 52.1037728,18.8392857 L49.5901008,18.8392857 L49.5901008,11.5115512 Z M50.5041634,12.3342075 L50.5041634,18.0166295 L52.0428353,18.0166295 C52.8621102,18.0166295 53.4977158,17.7678038 53.9496712,17.2701451 C54.4016266,16.7724863 54.6276009,16.0767901 54.6276009,15.1830357 C54.6276009,14.2858957 54.3999339,13.5868142 53.9445931,13.08577 C53.4892523,12.5847258 52.8553393,12.3342075 52.0428353,12.3342075 L50.5041634,12.3342075 Z M60.193226,19.011942 C59.1979085,19.011942 58.4099607,18.6683256 57.8293588,17.9810826 C57.2487569,17.2938395 56.9584603,16.3594739 56.9584603,15.1779575 C56.9584603,13.9930558 57.2479106,13.0569974 57.8268197,12.3697544 C58.4057289,11.6825113 59.1928304,11.338895 60.1881479,11.338895 C60.9600268,11.338895 61.6201764,11.5589449 62.1686167,11.9990512 C62.7170569,12.4391576 63.0454391,13.01298 63.1537729,13.7205356 L62.224476,13.7205356 C62.1026004,13.2465749 61.8588529,12.8716438 61.493226,12.5957309 C61.1275992,12.3198181 60.6925775,12.1818637 60.1881479,12.1818637 C59.4839777,12.1818637 58.9262359,12.4510017 58.5149057,12.9892856 C58.1035755,13.5275696 57.8979135,14.2571196 57.8979135,15.1779575 C57.8979135,16.0954101 58.1044218,16.8232674 58.5174447,17.3615513 C58.9304676,17.8998353 59.4890558,18.1689732 60.193226,18.1689732 C60.7044265,18.1689732 61.1419872,18.0462531 61.5059213,17.8008091 C61.8698555,17.5553652 62.1093713,17.2210586 62.224476,16.7978794 L63.1537729,16.7978794 C63.0318973,17.4715807 62.7026688,18.0090103 62.1660776,18.4101841 C61.6294864,18.811358 60.9718757,19.011942 60.193226,19.011942 Z M70.6338512,18.8392857 L69.7197886,18.8392857 L69.7197886,15.5029575 L65.6979136,15.5029575 L65.6979136,18.8392857 L64.7838511,18.8392857 L64.7838511,11.5115512 L65.6979136,11.5115512 L65.6979136,14.6803013 L69.7197886,14.6803013 L69.7197886,11.5115512 L70.6338512,11.5115512 L70.6338512,18.8392857 Z M77.3623669,18.8392857 C77.3623669,18.8392857 77.3251277,18.7334925 77.2506481,18.5219029 C77.1761686,18.3103133 77.0906877,18.0665657 76.9942028,17.7906529 C76.897718,17.51474 76.812237,17.2709925 76.7377575,17.0594029 L76.6260388,16.7420201 L73.711195,16.7420201 L72.9748668,18.8392857 L72.0151012,18.8392857 L74.7166637,11.5115512 L75.62057,11.5115512 L78.3221325,18.8392857 L77.3623669,18.8392857 Z M75.1279919,12.6947544 C75.1279919,12.6947544 75.08906,12.8047793 75.011195,13.0248325 C74.93333,13.2448857 74.8376929,13.517409 74.7242809,13.8424106 L74.3840465,14.8174107 C74.2706345,15.1424123 74.1749974,15.4149356 74.0971325,15.6349888 L73.9803356,15.9650669 L76.3568981,15.9650669 L75.2092419,12.6947544 L75.1279919,12.6947544 Z M81.6584607,18.8392857 C81.6584607,18.8392857 81.612758,18.8392857 81.5213513,18.8392857 C81.4299446,18.8392857 81.3233051,18.8392857 81.2014294,18.8392857 C81.0795538,18.8392857 80.9729143,18.8392857 80.8815076,18.8392857 C80.7901009,18.8392857 80.7443982,18.8392857 80.7443982,18.8392857 L80.7443982,12.3342075 L78.38307,12.3342075 L78.38307,11.5115512 L84.0197889,11.5115512 L84.0197889,12.3342075 L81.6584607,12.3342075 L81.6584607,18.8392857 Z" id="MINDCHAT" fill="#4D4D4D" fill-rule="nonzero" mask="url(#mask-2)"></path>
                <path d="M256.272248,18.8392857 L256.272248,13.3650669 L257.105061,13.3650669 L257.105061,14.2283481 L257.186311,14.2283481 C257.325113,13.9270446 257.529083,13.6917604 257.798225,13.5224888 C258.067367,13.3532171 258.411829,13.2685825 258.831623,13.2685825 C259.447772,13.2685825 259.920879,13.4437761 260.250959,13.7941685 C260.581039,14.1445608 260.746076,14.6447512 260.746076,15.2947544 L260.746076,18.8392857 L259.872639,18.8392857 L259.872639,15.5080357 C259.872639,15.0137624 259.766846,14.648141 259.555256,14.4111606 C259.343666,14.1741803 259.019516,14.0556919 258.582795,14.0556919 C258.146074,14.0556919 257.79738,14.1927999 257.536701,14.46702 C257.276023,14.7412401 257.145686,15.1187103 257.145686,15.5994419 L257.145686,18.8392857 L256.272248,18.8392857 Z M264.686701,18.9357701 C263.908052,18.9357701 263.292758,18.6827127 262.840803,18.1765904 C262.388848,17.6704681 262.162873,16.9790036 262.162873,16.1021763 C262.162873,15.2219636 262.388848,14.5296528 262.840803,14.0252231 C263.292758,13.5207935 263.908052,13.2685825 264.686701,13.2685825 C265.465351,13.2685825 266.080644,13.5207935 266.5326,14.0252231 C266.984555,14.5296528 267.21053,15.2219636 267.21053,16.1021763 C267.21053,16.9790036 266.984555,17.6704681 266.5326,18.1765904 C266.080644,18.6827127 265.465351,18.9357701 264.686701,18.9357701 Z M264.686701,18.1486607 C265.204673,18.1486607 265.604148,17.9692354 265.885139,17.6103794 C266.16613,17.2515235 266.306623,16.7487941 266.306623,16.1021763 C266.306623,15.452173 266.16613,14.9485973 265.885139,14.5914341 C265.604148,14.2342708 265.204673,14.0556919 264.686701,14.0556919 C264.16873,14.0556919 263.769255,14.2342708 263.488264,14.5914341 C263.207273,14.9485973 263.06678,15.452173 263.06678,16.1021763 C263.06678,16.7487941 263.207273,17.2515235 263.488264,17.6103794 C263.769255,17.9692354 264.16873,18.1486607 264.686701,18.1486607 Z M275.36092,13.3650669 C275.36092,13.3650669 275.309293,13.5495702 275.206038,13.9185825 C275.102782,14.2875948 274.974984,14.7437751 274.822639,15.2871372 C274.670295,15.8304993 274.517952,16.3738533 274.365608,16.9172154 C274.213263,17.4605775 274.085465,17.9167578 273.982209,18.2857701 C273.878954,18.6547823 273.827327,18.8392857 273.827327,18.8392857 L272.938655,18.8392857 L271.714827,14.6041294 L271.633577,14.6041294 L270.414827,18.8392857 L269.531233,18.8392857 L267.997639,13.3650669 L268.881233,13.3650669 L269.957795,17.7424107 L270.039045,17.7424107 L271.262873,13.3650669 L272.100764,13.3650669 L273.324592,17.7424107 L273.405842,17.7424107 L274.482405,13.3650669 L275.36092,13.3650669 Z" id="now" fill="#4D4D4D" fill-rule="nonzero" mask="url(#mask-2)"></path>
                <path d="M22.3203832,54.6141183 C22.3203832,55.8309213 21.9375746,56.8095899 21.1719457,57.5501535 C20.4063169,58.2907171 19.3923296,58.6609933 18.1299535,58.6609933 C16.7673165,58.6609933 15.6815526,58.1938756 14.8726293,57.2596261 C14.063706,56.3253767 13.6592504,55.0698554 13.6592504,53.4930246 C13.6592504,51.934423 14.0671239,50.6845983 14.8828832,49.7435128 C15.6986425,48.8024274 16.7809885,48.3318917 18.1299535,48.3318917 C19.223709,48.3318917 20.1408548,48.6155803 20.8814184,49.182966 C21.621982,49.7503516 22.0811245,50.5239441 22.2588598,51.5037667 L21.0078832,51.5037667 C20.7982468,50.8383988 20.4496174,50.3325445 19.9619848,49.9861886 C19.4743521,49.6398327 18.8636812,49.4666574 18.1299535,49.4666574 C17.1546882,49.4666574 16.3765385,49.8312371 15.7954809,50.5604074 C15.2144233,51.2895777 14.9238989,52.267107 14.9238989,53.4930246 C14.9238989,54.7371714 15.2121447,55.7203972 15.7886449,56.4427316 C16.3651452,57.1650659 17.1478522,57.5262277 18.1367895,57.5262277 C19.0209085,57.5262277 19.7352568,57.2687433 20.2798559,56.7537667 C20.824455,56.2387902 21.0967504,55.5643178 21.0967504,54.7303292 L21.0967504,54.4910714 L18.3213598,54.4910714 L18.3213598,53.4109933 L22.3203832,53.4109933 L22.3203832,54.6141183 Z M27.0592739,51.9686105 C26.4713803,51.9686105 25.9883122,52.1668507 25.6100551,52.5633371 C25.231798,52.9598234 25.0198861,53.4839067 24.9743129,54.1356027 L29.0348598,54.1356027 C29.0211878,53.4839067 28.8343408,52.9598234 28.4743129,52.5633371 C28.1142851,52.1668507 27.6426101,51.9686105 27.0592739,51.9686105 Z M29.0006801,56.5213449 L30.1764614,56.5213449 C30.0078407,57.1502543 29.6500969,57.6469941 29.1032192,58.0115792 C28.5563414,58.3761644 27.8795904,58.5584542 27.0729457,58.5584542 C26.0521073,58.5584542 25.2431961,58.2155215 24.6461879,57.5296456 C24.0491797,56.8437698 23.7506801,55.9175096 23.7506801,54.7508371 C23.7506801,53.5932792 24.0514583,52.6670189 24.6530239,51.9720285 C25.2545894,51.277038 26.0612219,50.929548 27.0729457,50.929548 C28.0664403,50.929548 28.848008,51.2610876 29.4176723,51.9241769 C29.9873366,52.5872662 30.2721645,53.4907402 30.2721645,54.6346261 L30.2721645,55.085798 L24.9743129,55.085798 L24.9743129,55.1404855 C25.0062141,55.8696558 25.2124295,56.4484261 25.5929653,56.8768136 C25.973501,57.3052012 26.4759374,57.5193917 27.1002895,57.5193917 C27.5742502,57.5193917 27.9707306,57.4339434 28.2897426,57.2630441 C28.6087546,57.0921448 28.8457314,56.8449142 29.0006801,56.5213449 Z M32.3860551,49.1522042 L33.5618364,49.1522042 L33.5618364,51.0594308 L35.2024614,51.0594308 L35.2024614,52.0438058 L33.5618364,52.0438058 L33.5618364,56.2137277 C33.5618364,56.6466726 33.648424,56.9611225 33.821602,57.1570871 C33.9947799,57.3530516 34.2727719,57.4510324 34.6555864,57.4510324 C34.7604046,57.4510324 34.8504102,57.4487537 34.9256059,57.4441964 C35.0008016,57.4396391 35.0930858,57.4328032 35.2024614,57.4236886 L35.2024614,58.4148996 C35.0885285,58.4376861 34.9745973,58.4547758 34.8606645,58.4661691 C34.7467316,58.4775624 34.6305218,58.4832589 34.5120317,58.4832589 C33.7555175,58.4832589 33.2120659,58.3305912 32.8816606,58.0252511 C32.5512553,57.719911 32.3860551,57.2163354 32.3860551,56.5145089 L32.3860551,52.0438058 L31.196602,52.0438058 L31.196602,51.0594308 L32.3860551,51.0594308 L32.3860551,49.1522042 Z M40.3120785,53.0760324 C40.3120785,52.4653522 40.5741202,51.9549407 41.0982114,51.5447824 C41.6223025,51.1346241 42.2762673,50.929548 43.0601254,50.929548 C43.8348689,50.929548 44.471744,51.1072806 44.9707699,51.4627511 C45.4697959,51.8182216 45.7580417,52.2990111 45.835516,52.9051339 L44.6734067,52.9051339 C44.5959323,52.6089085 44.4181997,52.3719317 44.1402035,52.1941964 C43.8622074,52.0164612 43.4999063,51.9275949 43.0532895,51.9275949 C42.6157873,51.9275949 42.2466504,52.0289936 41.9458676,52.2317941 C41.6450848,52.4345946 41.4946957,52.7000542 41.4946957,53.0281808 C41.4946957,53.2788331 41.5995124,53.4873271 41.8091489,53.6536691 C42.0187853,53.8200111 42.3400712,53.9555891 42.773016,54.0604074 L43.9077817,54.3338449 C44.6004935,54.5024655 45.1166016,54.7451389 45.4561215,55.0618722 C45.7956414,55.3786056 45.9653989,55.8012901 45.9653989,56.3299386 C45.9653989,56.9907492 45.6828496,57.5273649 45.1177426,57.9398019 C44.5526356,58.3522389 43.8508197,58.5584542 43.0122739,58.5584542 C42.1919572,58.5584542 41.5197635,58.3761644 40.9956723,58.0115792 C40.4715811,57.6469941 40.1776388,57.1593688 40.1138364,56.5486886 L41.3237973,56.5486886 C41.4240582,56.858586 41.6200198,57.1058166 41.9116879,57.2903878 C42.203356,57.4749591 42.5838861,57.5672433 43.0532895,57.5672433 C43.5500368,57.5672433 43.9579103,57.460148 44.2769223,57.2459542 C44.5959343,57.0317605 44.7554379,56.7560471 44.7554379,56.4188058 C44.7554379,56.1635962 44.6585964,55.9505449 44.4649106,55.7796456 C44.2712247,55.6087464 43.9784216,55.4754469 43.5864926,55.3797433 L42.3218442,55.0721261 C41.6336897,54.9035055 41.1266961,54.6619714 40.8008481,54.3475167 C40.4750001,54.033062 40.3120785,53.6092382 40.3120785,53.0760324 Z M50.6154223,58.5584542 C49.56724,58.5584542 48.7389605,58.2178001 48.130559,57.5364816 C47.5221575,56.8551631 47.2179614,55.9243456 47.2179614,54.7440011 C47.2179614,53.5590994 47.5221575,52.6271425 48.130559,51.9481027 C48.7389605,51.2690628 49.56724,50.929548 50.6154223,50.929548 C51.6636046,50.929548 52.4918841,51.2690628 53.1002856,51.9481027 C53.708687,52.6271425 54.0128832,53.5590994 54.0128832,54.7440011 C54.0128832,55.9243456 53.708687,56.8551631 53.1002856,57.5364816 C52.4918841,58.2178001 51.6636046,58.5584542 50.6154223,58.5584542 Z M50.6154223,57.4988839 C51.3126914,57.4988839 51.8504464,57.2573499 52.2287035,56.7742746 C52.6069606,56.2911992 52.7960864,55.6144482 52.7960864,54.7440011 C52.7960864,53.8689967 52.6069606,53.1911064 52.2287035,52.7103097 C51.8504464,52.229513 51.3126914,51.9891183 50.6154223,51.9891183 C49.9181532,51.9891183 49.3803981,52.229513 49.002141,52.7103097 C48.6238839,53.1911064 48.4347582,53.8689967 48.4347582,54.7440011 C48.4347582,55.6144482 48.6238839,56.2911992 49.002141,56.7742746 C49.3803981,57.2573499 49.9181532,57.4988839 50.6154223,57.4988839 Z M61.7322426,53.3152902 L60.5427895,53.3152902 C60.4470859,52.950705 60.2385919,52.6385337 59.9173012,52.3787667 C59.5960105,52.1189998 59.1710473,51.9891183 58.6423989,51.9891183 C57.9815883,51.9891183 57.4563656,52.2352096 57.0667153,52.7273996 C56.6770649,53.2195895 56.4822426,53.8826688 56.4822426,54.7166574 C56.4822426,55.5688752 56.6782042,56.2456262 57.0701332,56.7469308 C57.4620623,57.2482354 57.9861456,57.4988839 58.6423989,57.4988839 C59.1391461,57.4988839 59.5527162,57.3872314 59.8831215,57.163923 C60.2135268,56.9406146 60.4334139,56.6216074 60.5427895,56.2068917 L61.7322426,56.2068917 C61.6274244,56.8813743 61.3084171,57.4419155 60.7752114,57.8885324 C60.2420056,58.3351492 59.5333538,58.5584542 58.6492348,58.5584542 C57.6192817,58.5584542 56.7978381,58.2109642 56.1848793,57.5159738 C55.5719205,56.8209833 55.2654457,55.8878872 55.2654457,54.7166574 C55.2654457,53.5682141 55.5707812,52.649929 56.1814614,51.9617746 C56.7921415,51.2736201 57.6124458,50.929548 58.6423989,50.929548 C59.5401898,50.929548 60.2545381,51.1631069 60.7854653,51.6302316 C61.3163924,52.0973563 61.6319817,52.6590369 61.7322426,53.3152902 Z M64.5980864,54.2791574 C64.5980864,54.2791574 64.7063209,54.1709228 64.9227934,53.9544503 C65.1392658,53.7379779 65.4058647,53.4691004 65.7225981,53.1478097 C66.0393314,52.826519 66.35606,52.5063725 66.6727934,52.1873605 C66.9895267,51.8683485 67.2561256,51.6006103 67.4725981,51.3841378 L67.7973051,51.0594308 L69.2396879,51.0594308 L66.0678129,54.2176339 L69.451602,58.4285714 L67.9545317,58.4285714 L65.1928129,54.976423 L64.4887114,55.632673 L64.4887114,58.4285714 L63.3129301,58.4285714 L63.3129301,48.1336496 L64.4887114,48.1336496 L64.4887114,54.2791574 L64.5980864,54.2791574 Z M70.1777973,53.0760324 C70.1777973,52.4653522 70.4398389,51.9549407 70.9639301,51.5447824 C71.4880213,51.1346241 72.1419861,50.929548 72.9258442,50.929548 C73.7005876,50.929548 74.3374628,51.1072806 74.8364887,51.4627511 C75.3355146,51.8182216 75.6237604,52.2990111 75.7012348,52.9051339 L74.5391254,52.9051339 C74.4616511,52.6089085 74.2839185,52.3719317 74.0059223,52.1941964 C73.7279261,52.0164612 73.365625,51.9275949 72.9190082,51.9275949 C72.481506,51.9275949 72.1123691,52.0289936 71.8115864,52.2317941 C71.5108036,52.4345946 71.3604145,52.7000542 71.3604145,53.0281808 C71.3604145,53.2788331 71.4652311,53.4873271 71.6748676,53.6536691 C71.8845041,53.8200111 72.2057899,53.9555891 72.6387348,54.0604074 L73.7735004,54.3338449 C74.4662122,54.5024655 74.9823203,54.7451389 75.3218403,55.0618722 C75.6613602,55.3786056 75.8311176,55.8012901 75.8311176,56.3299386 C75.8311176,56.9907492 75.5485683,57.5273649 74.9834614,57.9398019 C74.4183544,58.3522389 73.7165385,58.5584542 72.8779926,58.5584542 C72.057676,58.5584542 71.3854822,58.3761644 70.861391,58.0115792 C70.3372999,57.6469941 70.0433575,57.1593688 69.9795551,56.5486886 L71.189516,56.5486886 C71.289777,56.858586 71.4857385,57.1058166 71.7774067,57.2903878 C72.0690748,57.4749591 72.4496048,57.5672433 72.9190082,57.5672433 C73.4157555,57.5672433 73.823629,57.460148 74.142641,57.2459542 C74.4616531,57.0317605 74.6211567,56.7560471 74.6211567,56.4188058 C74.6211567,56.1635962 74.5243152,55.9505449 74.3306293,55.7796456 C74.1369435,55.6087464 73.8441404,55.4754469 73.4522114,55.3797433 L72.1875629,55.0721261 C71.4994084,54.9035055 70.9924148,54.6619714 70.6665668,54.3475167 C70.3407188,54.033062 70.1777973,53.6092382 70.1777973,53.0760324 Z M84.8440551,58.5584542 C84.3336359,58.5584542 83.8699361,58.4433838 83.4529418,58.2132394 C83.0359475,57.983095 82.7112438,57.6629485 82.4788207,57.2527902 L82.3694457,57.2527902 L82.3694457,58.4285714 L81.248352,58.4285714 L81.248352,48.1336496 L82.4241332,48.1336496 L82.4241332,52.2215402 L82.5335082,52.2215402 C82.7340301,51.8250538 83.0427835,51.5106038 83.4597778,51.2781808 C83.876772,51.0457578 84.3381932,50.929548 84.8440551,50.929548 C85.7828619,50.929548 86.5325289,51.2758987 87.0930785,51.9686105 C87.6536282,52.6613223 87.9338989,53.5864432 87.9338989,54.7440011 C87.9338989,55.8970017 87.6524889,56.8209833 87.0896606,57.5159738 C86.5268322,58.2109642 85.7783046,58.5584542 84.8440551,58.5584542 Z M84.5706176,51.9891183 C83.9006924,51.9891183 83.3709125,52.2352096 82.9812621,52.7273996 C82.5916117,53.2195895 82.3967895,53.8917833 82.3967895,54.7440011 C82.3967895,55.5962189 82.5916117,56.2684127 82.9812621,56.7606027 C83.3709125,57.2527926 83.9006924,57.4988839 84.5706176,57.4988839 C85.2451001,57.4988839 85.7714621,57.2550713 86.1497192,56.7674386 C86.5279763,56.279806 86.717102,55.6053335 86.717102,54.7440011 C86.717102,53.8826687 86.5279763,53.2081963 86.1497192,52.7205636 C85.7714621,52.232931 85.2451001,51.9891183 84.5706176,51.9891183 Z M91.8251332,57.5262277 C92.431256,57.5262277 92.9336924,57.3496344 93.3324574,56.9964425 C93.7312225,56.6432507 93.930602,56.2046157 93.930602,55.6805246 L93.930602,55.0037667 L91.9481801,55.1336496 C90.8726539,55.2065666 90.3348989,55.6076042 90.3348989,56.3367746 C90.3348989,56.7104743 90.4761735,57.0021381 90.758727,57.2117746 C91.0412805,57.421411 91.3967457,57.5262277 91.8251332,57.5262277 Z M91.6063832,58.5584542 C90.8908849,58.5584542 90.2973036,58.3613533 89.8256215,57.9671456 C89.3539395,57.5729379 89.118102,57.0386008 89.118102,56.3641183 C89.118102,55.0151532 90.0136008,54.2882725 91.8046254,54.1834542 L93.930602,54.0535714 L93.930602,53.3836496 C93.930602,52.9279181 93.7904667,52.5792888 93.5101918,52.3377511 C93.229917,52.0962135 92.8140683,51.9754464 92.2626332,51.9754464 C91.8205737,51.9754464 91.4537154,52.0551982 91.1620473,52.2147042 C90.8703792,52.3742102 90.6835321,52.5997939 90.6015004,52.8914621 L89.4120473,52.8914621 C89.4895216,52.2990112 89.7948571,51.8239183 90.3280629,51.4661691 C90.8612687,51.1084199 91.5197908,50.929548 92.3036489,50.929548 C93.2014398,50.929548 93.8930019,51.1471565 94.3783559,51.58238 C94.8637099,52.0176036 95.1063832,52.6180207 95.1063832,53.3836496 L95.1063832,58.4285714 L93.9852895,58.4285714 L93.9852895,57.3416574 L93.8759145,57.3416574 C93.6389341,57.7335864 93.3244841,58.0343647 92.9325551,58.2440011 C92.5406261,58.4536376 92.0985732,58.5584542 91.6063832,58.5584542 Z M103.153868,53.3152902 L101.964414,53.3152902 C101.868711,52.950705 101.660217,52.6385337 101.338926,52.3787667 C101.017636,52.1189998 100.592672,51.9891183 100.064024,51.9891183 C99.4032133,51.9891183 98.8779906,52.2352096 98.4883403,52.7273996 C98.0986899,53.2195895 97.9038676,53.8826688 97.9038676,54.7166574 C97.9038676,55.5688752 98.0998292,56.2456262 98.4917582,56.7469308 C98.8836873,57.2482354 99.4077706,57.4988839 100.064024,57.4988839 C100.560771,57.4988839 100.974341,57.3872314 101.304747,57.163923 C101.635152,56.9406146 101.855039,56.6216074 101.964414,56.2068917 L103.153868,56.2068917 C103.049049,56.8813743 102.730042,57.4419155 102.196836,57.8885324 C101.663631,58.3351492 100.954979,58.5584542 100.07086,58.5584542 C99.0409067,58.5584542 98.2194631,58.2109642 97.6065043,57.5159738 C96.9935455,56.8209833 96.6870707,55.8878872 96.6870707,54.7166574 C96.6870707,53.5682141 96.9924062,52.649929 97.6030864,51.9617746 C98.2137665,51.2736201 99.0340708,50.929548 100.064024,50.929548 C100.961815,50.929548 101.676163,51.1631069 102.20709,51.6302316 C102.738017,52.0973563 103.053607,52.6590369 103.153868,53.3152902 Z M106.019711,54.2791574 C106.019711,54.2791574 106.127946,54.1709228 106.344418,53.9544503 C106.560891,53.7379779 106.82749,53.4691004 107.144223,53.1478097 C107.460956,52.826519 107.777685,52.5063725 108.094418,52.1873605 C108.411152,51.8683485 108.677751,51.6006103 108.894223,51.3841378 L109.21893,51.0594308 L110.661313,51.0594308 L107.489438,54.2176339 L110.873227,58.4285714 L109.376157,58.4285714 L106.614438,54.976423 L105.910336,55.632673 L105.910336,58.4285714 L104.734555,58.4285714 L104.734555,48.1336496 L105.910336,48.1336496 L105.910336,54.2791574 L106.019711,54.2791574 Z M116.263118,58.4285714 L116.263118,52.0438058 L115.039485,52.0438058 L115.039485,51.0594308 L116.263118,51.0594308 L116.263118,50.2391183 C116.263118,49.5053907 116.444268,48.9596605 116.806575,48.6019113 C117.168881,48.2441621 117.70094,48.0652902 118.402766,48.0652902 C118.5486,48.0652902 118.686457,48.0709867 118.81634,48.08238 C118.946224,48.0937733 119.072687,48.110863 119.195735,48.1336496 L119.195735,49.0906808 C119.122818,49.0770089 119.038509,49.0678944 118.942805,49.0633371 C118.847101,49.0587797 118.746842,49.0565011 118.642024,49.0565011 C118.218194,49.0565011 117.911719,49.1578998 117.72259,49.3607003 C117.533462,49.5635008 117.438899,49.867697 117.438899,50.273298 L117.438899,51.0594308 L119.127375,51.0594308 L119.127375,52.0438058 L117.438899,52.0438058 L117.438899,58.4285714 L116.263118,58.4285714 Z M120.61236,58.4285714 L120.61236,51.0594308 L121.733454,51.0594308 L121.733454,52.1531808 L121.842829,52.1531808 C121.952204,51.793153 122.198295,51.4992106 122.58111,51.2713449 C122.963924,51.0434791 123.399141,50.929548 123.886774,50.929548 C123.982477,50.929548 124.086155,50.9329659 124.197809,50.9398019 C124.309463,50.9466379 124.401747,50.954613 124.474664,50.9637277 L124.474664,52.1395089 C124.429091,52.125837 124.321996,52.1110259 124.153375,52.0950753 C123.984755,52.0791247 123.841202,52.0711496 123.722711,52.0711496 C123.162162,52.0711496 122.699601,52.2397677 122.335016,52.5770089 C121.970431,52.9142502 121.788141,53.3426313 121.788141,53.8621652 L121.788141,58.4285714 L120.61236,58.4285714 Z M128.543633,58.5584542 C127.495451,58.5584542 126.667171,58.2178001 126.05877,57.5364816 C125.450368,56.8551631 125.146172,55.9243456 125.146172,54.7440011 C125.146172,53.5590994 125.450368,52.6271425 126.05877,51.9481027 C126.667171,51.2690628 127.495451,50.929548 128.543633,50.929548 C129.591816,50.929548 130.420095,51.2690628 131.028497,51.9481027 C131.636898,52.6271425 131.941094,53.5590994 131.941094,54.7440011 C131.941094,55.9243456 131.636898,56.8551631 131.028497,57.5364816 C130.420095,58.2178001 129.591816,58.5584542 128.543633,58.5584542 Z M128.543633,57.4988839 C129.240902,57.4988839 129.778657,57.2573499 130.156914,56.7742746 C130.535172,56.2911992 130.724297,55.6144482 130.724297,54.7440011 C130.724297,53.8689967 130.535172,53.1911064 130.156914,52.7103097 C129.778657,52.229513 129.240902,51.9891183 128.543633,51.9891183 C127.846364,51.9891183 127.308609,52.229513 126.930352,52.7103097 C126.552095,53.1911064 126.362969,53.8689967 126.362969,54.7440011 C126.362969,55.6144482 126.552095,56.2911992 126.930352,56.7742746 C127.308609,57.2573499 127.846364,57.4988839 128.543633,57.4988839 Z M133.562797,58.4285714 L133.562797,51.0594308 L134.683891,51.0594308 L134.683891,52.2215402 L134.793266,52.2215402 C134.961887,51.8113819 135.223928,51.493514 135.579399,51.2679269 C135.934869,51.0423398 136.358693,50.929548 136.850883,50.929548 C137.352188,50.929548 137.774872,51.0491757 138.11895,51.2884347 C138.463027,51.5276937 138.719372,51.8387258 138.887993,52.2215402 L138.997368,52.2215402 C139.197889,51.8296111 139.496389,51.5163005 139.892875,51.2815988 C140.289362,51.0468971 140.742808,50.929548 141.253227,50.929548 C142.005184,50.929548 142.583954,51.1369027 142.989555,51.5516183 C143.395156,51.9663339 143.597954,52.5610545 143.597954,53.335798 L143.597954,58.4285714 L142.422172,58.4285714 L142.422172,53.6092355 C142.422172,53.0669151 142.29343,52.6613202 142.035942,52.3924386 C141.778454,52.1235571 141.389948,51.9891183 140.870414,51.9891183 C140.359995,51.9891183 139.947564,52.1554578 139.63311,52.4881417 C139.318655,52.8208257 139.16143,53.2218634 139.16143,53.6912667 L139.16143,58.4285714 L137.985649,58.4285714 L137.985649,53.4246652 C137.985649,52.987163 137.845514,52.6385337 137.565239,52.3787667 C137.284964,52.1189998 136.912409,51.9891183 136.447563,51.9891183 C135.964488,51.9891183 135.558893,52.1714081 135.230766,52.5359933 C134.902639,52.9005785 134.738579,53.3426313 134.738579,53.8621652 L134.738579,58.4285714 L133.562797,58.4285714 Z M148.926321,55.851423 L150.170461,55.851423 C150.247936,56.3663995 150.514535,56.7765517 150.970266,57.0818917 C151.425997,57.3872318 152.004768,57.5398996 152.706594,57.5398996 C153.371962,57.5398996 153.92225,57.3792566 154.357473,57.057966 C154.792697,56.7366753 155.010305,56.3322197 155.010305,55.8445871 C155.010305,55.4253141 154.850801,55.0766848 154.531789,54.7986886 C154.212777,54.5206924 153.713759,54.2973874 153.034719,54.1287667 L151.770071,53.8006417 C150.876837,53.572776 150.22743,53.2480722 149.821829,52.8265206 C149.416228,52.4049691 149.21343,51.8432885 149.21343,51.1414621 C149.21343,50.3029162 149.533577,49.6250258 150.173879,49.1077706 C150.814182,48.5905155 151.656133,48.3318917 152.699758,48.3318917 C153.652237,48.3318917 154.449755,48.5870975 155.092336,49.0975167 C155.734918,49.607936 156.081268,50.2619008 156.131399,51.0594308 L154.894094,51.0594308 C154.807505,50.5535689 154.56711,50.1582278 154.172903,49.8733956 C153.778695,49.5885635 153.27398,49.4461496 152.658743,49.4461496 C152.002489,49.4461496 151.474988,49.5965387 151.076223,49.8973214 C150.677458,50.1981042 150.478079,50.5991418 150.478079,51.1004464 C150.478079,51.4878182 150.62505,51.8022681 150.918997,52.0438058 C151.212943,52.2853435 151.699429,52.4926982 152.378469,52.6658761 L153.410696,52.9393136 C154.431534,53.1945232 155.164111,53.5363167 155.60845,53.9647042 C156.052788,54.3930918 156.274954,54.9695834 156.274954,55.6941964 C156.274954,56.601102 155.943414,57.3222862 155.280325,57.8577706 C154.617235,58.3932551 153.720597,58.6609933 152.590383,58.6609933 C151.546758,58.6609933 150.691135,58.4057875 150.023489,57.8953683 C149.355842,57.3849491 148.990123,56.7036408 148.926321,55.851423 Z M160.214039,57.5262277 C160.820162,57.5262277 161.322599,57.3496344 161.721364,56.9964425 C162.120129,56.6432507 162.319508,56.2046157 162.319508,55.6805246 L162.319508,55.0037667 L160.337086,55.1336496 C159.26156,55.2065666 158.723805,55.6076042 158.723805,56.3367746 C158.723805,56.7104743 158.86508,57.0021381 159.147633,57.2117746 C159.430187,57.421411 159.785652,57.5262277 160.214039,57.5262277 Z M159.995289,58.5584542 C159.279791,58.5584542 158.68621,58.3613533 158.214528,57.9671456 C157.742846,57.5729379 157.507008,57.0386008 157.507008,56.3641183 C157.507008,55.0151532 158.402507,54.2882725 160.193532,54.1834542 L162.319508,54.0535714 L162.319508,53.3836496 C162.319508,52.9279181 162.179373,52.5792888 161.899098,52.3377511 C161.618823,52.0962135 161.202975,51.9754464 160.651539,51.9754464 C160.20948,51.9754464 159.842622,52.0551982 159.550954,52.2147042 C159.259285,52.3742102 159.072438,52.5997939 158.990407,52.8914621 L157.800954,52.8914621 C157.878428,52.2990112 158.183763,51.8239183 158.716969,51.4661691 C159.250175,51.1084199 159.908697,50.929548 160.692555,50.929548 C161.590346,50.929548 162.281908,51.1471565 162.767262,51.58238 C163.252616,52.0176036 163.495289,52.6180207 163.495289,53.3836496 L163.495289,58.4285714 L162.374196,58.4285714 L162.374196,57.3416574 L162.264821,57.3416574 C162.02784,57.7335864 161.71339,58.0343647 161.321461,58.2440011 C160.929532,58.4536376 160.487479,58.5584542 159.995289,58.5584542 Z M165.445118,58.4285714 L165.445118,51.0594308 L166.566211,51.0594308 L166.566211,52.2215402 L166.675586,52.2215402 C166.862436,51.8159392 167.13701,51.4992106 167.499317,51.2713449 C167.861623,51.0434791 168.325323,50.929548 168.89043,50.929548 C169.719861,50.929548 170.356736,51.1653855 170.801075,51.6370675 C171.245413,52.1087496 171.467579,52.7820827 171.467579,53.6570871 L171.467579,58.4285714 L170.291797,58.4285714 L170.291797,53.9441964 C170.291797,53.2788285 170.149383,52.7866459 169.864551,52.4676339 C169.579719,52.1486219 169.143363,51.9891183 168.555469,51.9891183 C167.967576,51.9891183 167.498179,52.1736868 167.147266,52.5428292 C166.796353,52.9119717 166.620899,53.4201047 166.620899,54.0672433 L166.620899,58.4285714 L165.445118,58.4285714 Z M173.88225,49.1522042 L175.058032,49.1522042 L175.058032,51.0594308 L176.698657,51.0594308 L176.698657,52.0438058 L175.058032,52.0438058 L175.058032,56.2137277 C175.058032,56.6466726 175.144619,56.9611225 175.317797,57.1570871 C175.490975,57.3530516 175.768967,57.4510324 176.151782,57.4510324 C176.2566,57.4510324 176.346606,57.4487537 176.421801,57.4441964 C176.496997,57.4396391 176.589281,57.4328032 176.698657,57.4236886 L176.698657,58.4148996 C176.584724,58.4376861 176.470793,58.4547758 176.35686,58.4661691 C176.242927,58.4775624 176.126717,58.4832589 176.008227,58.4832589 C175.251713,58.4832589 174.708261,58.3305912 174.377856,58.0252511 C174.047451,57.719911 173.88225,57.2163354 173.88225,56.5145089 L173.88225,52.0438058 L172.692797,52.0438058 L172.692797,51.0594308 L173.88225,51.0594308 L173.88225,49.1522042 Z M178.279344,58.4285714 L178.279344,51.0594308 L179.455125,51.0594308 L179.455125,58.4285714 L178.279344,58.4285714 Z M178.874071,49.6375558 C178.646205,49.6375558 178.452522,49.5566647 178.293016,49.39488 C178.13351,49.2330954 178.053758,49.0405517 178.053758,48.8172433 C178.053758,48.5893776 178.13351,48.3956946 178.293016,48.2361886 C178.452522,48.0766826 178.646205,47.9969308 178.874071,47.9969308 C179.101936,47.9969308 179.295619,48.0766826 179.455125,48.2361886 C179.614631,48.3956946 179.694383,48.5893776 179.694383,48.8172433 C179.694383,49.0405517 179.614631,49.2330954 179.455125,49.39488 C179.295619,49.5566647 179.101936,49.6375558 178.874071,49.6375558 Z" id="GetsocksbackfromSanti" fill="#000000" fill-rule="nonzero" mask="url(#mask-2)"></path>
            </g>
            <g id="Group" transform="translate(7.000000, 7.000000)">
                <rect id="Rectangle" fill="#FFFFFF" x="0" y="0" width="16" height="16" rx="4.03199991"></rect>
                <g id="Minchat-logo" transform="translate(3.599998, 2.500000)">
                    <g id="Group-11">
                        <mask id="mask-6" fill="white">
                            <use xlink:href="#path-5"></use>
                        </mask>
                        <g id="Mask-Copy-47">
                            <use fill="black" fill-opacity="1" filter="url(#filter-7)" xlink:href="#path-5"></use>
                            <path stroke="#FA88C4" stroke-width="0.5" d="M8.72312132,10.2498536 L8.72312132,1.76956618 C8.72312132,0.925549972 8.04429072,0.25 7.2003213,0.25 L1.77280002,0.25 C0.933321099,0.25 0.25,0.931385659 0.25,1.76956618 L0.25,7.81738064 C0.25,8.66139685 0.928830605,9.33694682 1.77280002,9.33694682 L4.59696819,9.33694682 C4.6161271,9.33697183 4.6161271,9.33697183 4.63527784,9.33709614 C5.4641175,9.34354379 6.34293678,9.55374781 7.22028625,9.89925227 C7.53057762,10.0214465 7.81883387,10.1523379 8.07801138,10.2833986 C8.2345573,10.3625607 8.34752279,10.4247312 8.39503672,10.453388 C8.61260161,10.5626844 8.72312132,10.4949437 8.72312132,10.2498536 Z" stroke-linejoin="square" fill="url(#linearGradient-4)" fill-rule="evenodd"></path>
                        </g>
                        <g id="left-top-neuron" mask="url(#mask-6)" stroke="#FA88C4" stroke-linecap="round" stroke-width="0.5">
                            <g transform="translate(0.085351, 1.474663)">
                                <path d="M1.42640721,0.934645462 C1.42640721,1.43362236 1.04976896,1.83813608 0.585177085,1.83813608" id="Stroke-13-Copy-63"></path>
                                <path d="M3.80989256,0.934645462 C3.80989256,0.435668569 4.18653081,0.0311548487 4.65112268,0.0311548487" id="Stroke-67-Copy-32"></path>
                                <path d="M3.80989256,0.934645462 C3.80989256,1.43362236 3.41908915,1.83813608 2.93702424,1.83813608 L0.585177085,1.83813608" id="Stroke-13-Copy-64"></path>
                                <path d="M0.88581583,3.79569907 C0.410031038,3.79569907 0.0243570026,3.35750519 0.0243570026,2.8169056 C0.0243570026,2.27635391 0.410031038,1.83813608 0.88581583,1.83813608 L3.95009758,1.83813608" id="Stroke-31-Copy-50" transform="translate(1.987227, 2.816918) scale(1, -1) rotate(-180.000000) translate(-1.987227, -2.816918) "></path>
                                <path d="M1.56661223,2.79569907 L2.27461082,2.7995468 C2.67314039,2.7995468 3.00867964,3.11687972 3.10886746,3.54860792" id="Stroke-57-Copy-32" transform="translate(2.337740, 3.295699) scale(-1, -1) translate(-2.337740, -3.295699) "></path>
                            </g>
                        </g>
                        <g id="right-top-neuron" mask="url(#mask-6)" stroke-linecap="round">
                            <g transform="translate(5.505140, 3.317991)" id="Group-4">
                                <g>
                                    <path d="M2.03355146,0 C2.45773777,0.0501122719 2.80430342,0.472367421 2.80430342,0.979020926 C2.80430342,1.51948166 2.42764458,1.957563 1.9630733,1.957563" id="Stroke-51-Copy-30" stroke="#FA88C4" stroke-width="0.5"></path>
                                    <path d="M0.853510129,1.05991392 C0.853510129,1.55890071 1.25257292,1.96340453 1.74484778,1.96340453 L3.3772005,1.96340453" id="Stroke-63-Copy-63" stroke="#FA88C4" stroke-width="0.5"></path>
                                    <path d="M0.00553098033,0.145389294 C0.470132066,0.145389294 0.846761104,0.549893117 0.846761104,1.04887991" id="Stroke-63-Copy-64" stroke="#FA88C4" stroke-width="0.5"></path>
                                </g>
                            </g>
                        </g>
                        <g id="bot-right-neuron" mask="url(#mask-6)" stroke="#FA88C4" stroke-linecap="round" stroke-width="0.5">
                            <g transform="translate(4.651630, 4.852568)">
                                <path d="M0,1.80698123 C0,1.30799444 0.343919423,0.903490614 0.768170665,0.903490614 L4.20615062,0.903490614" id="Stroke-75-Copy-33" transform="translate(2.103075, 1.403491) scale(1, -1) translate(-2.103075, -1.403491) "></path>
                                <path d="M3.25135965,3.87922727 C2.77555592,3.87922727 2.38982836,3.44102802 2.38982836,2.90044577 C2.38982836,2.35986352 2.77555592,1.92166428 3.25135965,1.92166428 L4.21249363,1.92166428" id="Stroke-25-Copy-58"></path>
                            </g>
                        </g>
                        <g id="bot-left-neuron" mask="url(#mask-6)" stroke="#FA88C4" stroke-linecap="round" stroke-linejoin="round" stroke-width="0.5">
                            <g transform="translate(0.341404, 6.774232)" id="Stroke-35-Copy-36">
                                <path d="M1.46271422,0.00194717805 C1.94425373,0.00194717805 2.33466984,0.440165014 2.33466984,0.980716702 C2.33466984,1.52131629 1.94425373,1.95951017 1.46271422,1.95951017 L0.0213377532,1.95853659"></path>
                            </g>
                        </g>
                    </g>
                </g>
            </g>
        </g>
    </g>
</svg>