<?xml version="1.0" encoding="UTF-8"?>
<svg width="387px" height="198px" viewBox="0 0 387 198" version="1.1" xmlns="http://www.w3.org/2000/svg" xmlns:xlink="http://www.w3.org/1999/xlink">
    <!-- Generator: Sketch 54.1 (76490) - https://sketchapp.com -->
    <title>notification</title>
    <desc>Created with Sketch.</desc>
    <defs>
        <rect id="path-1" x="0" y="0" width="287" height="77" rx="9.60000014"></rect>
        <filter x="-8.0%" y="-26.0%" width="116.0%" height="159.7%" filterUnits="objectBoundingBox" id="filter-3">
            <feMorphology radius="0.5" operator="dilate" in="SourceAlpha" result="shadowSpreadOuter1"></feMorphology>
            <feOffset dx="0" dy="3" in="shadowSpreadOuter1" result="shadowOffsetOuter1"></feOffset>
            <feGaussianBlur stdDeviation="7" in="shadowOffsetOuter1" result="shadowBlurOuter1"></feGaussianBlur>
            <feComposite in="shadowBlurOuter1" in2="SourceAlpha" operator="out" result="shadowBlurOuter1"></feComposite>
            <feColorMatrix values="0 0 0 0 0   0 0 0 0 0   0 0 0 0 0  0 0 0 0.3 0" type="matrix" in="shadowBlurOuter1"></feColorMatrix>
        </filter>
        <linearGradient x1="22.555566%" y1="0%" x2="84.8225995%" y2="100%" id="linearGradient-4">
            <stop stop-color="#FFFFFF" offset="0%"></stop>
            <stop stop-color="#FFCEE4" offset="100%"></stop>
        </linearGradient>
        <path d="M8.97312132,7.81738064 L8.97312132,10.2498536 C8.97312132,10.6832792 8.66458367,10.8685713 8.28281133,10.6767833 C8.28281133,10.6767833 6.43374806,9.58694682 4.59696819,9.58694682 L1.77280002,9.58694682 C0.793709606,9.58694682 0,8.80240672 0,7.81738064 L0,1.76956618 C0,0.792261765 0.796304658,0 1.77280002,0 L7.2003213,0 C8.17941172,0 8.97312132,0.784540095 8.97312132,1.76956618 L8.97312132,7.81738064 Z" id="path-5"></path>
        <filter x="-2.2%" y="-1.9%" width="104.5%" height="107.4%" filterUnits="objectBoundingBox" id="filter-7">
            <feOffset dx="0" dy="0.4" in="SourceAlpha" result="shadowOffsetOuter1"></feOffset>
            <feComposite in="shadowOffsetOuter1" in2="SourceAlpha" operator="out" result="shadowOffsetOuter1"></feComposite>
            <feColorMatrix values="0 0 0 0 0.896045918   0 0 0 0 0.407770896   0 0 0 0 0.66475775  0 0 0 1 0" type="matrix" in="shadowOffsetOuter1"></feColorMatrix>
        </filter>
    </defs>
    <g id="notification" stroke="none" stroke-width="1" fill="none" fill-rule="evenodd">
        <g id="Group-3-Copy-2" transform="translate(50.000000, 60.000000)">
            <g id="banner-copy">
                <mask id="mask-2" fill="white">
                    <use xlink:href="#path-1"></use>
                </mask>
                <g id="bg" stroke-linecap="round" stroke-linejoin="round">
                    <use fill="black" fill-opacity="1" filter="url(#filter-3)" xlink:href="#path-1"></use>
                    <rect stroke-opacity="0.05" stroke="#000000" stroke-width="0.5" fill-opacity="0.949999988" fill="#E6E7E7" fill-rule="evenodd" x="-0.25" y="-0.25" width="287.5" height="77.5" rx="9.60000014"></rect>
                </g>
                <rect id="top-highlight" fill="#EEEFEF" mask="url(#mask-2)" x="0" y="0" width="287" height="28.9285714"></rect>
                <path d="M36.930335,18.8392857 L36.07721,18.8392857 L36.07721,13.2431919 L36.0162725,13.2431919 L33.7057256,18.8392857 L32.9338506,18.8392857 L30.6233037,13.2431919 L30.5623662,13.2431919 L30.5623662,18.8392857 L29.7092412,18.8392857 L29.7092412,11.5115512 L30.7705693,11.5115512 L33.2791631,17.6256138 L33.3604131,17.6256138 L35.8690069,11.5115512 L36.930335,11.5115512 L36.930335,18.8392857 Z M39.809632,18.8392857 L38.8955694,18.8392857 L38.8955694,11.5115512 L39.809632,11.5115512 L39.809632,18.8392857 Z M42.6787726,18.8392857 L41.7748664,18.8392857 L41.7748664,11.5115512 L42.6635382,11.5115512 L46.6397102,17.2142857 L46.7209602,17.2142857 L46.7209602,11.5115512 L47.6248664,11.5115512 L47.6248664,18.8392857 L46.7361946,18.8392857 L42.7600226,13.1568638 L42.6787726,13.1568638 L42.6787726,18.8392857 Z M49.5901008,11.5115512 L52.1037728,11.5115512 C53.190497,11.5115512 54.0385354,11.8331626 54.6479134,12.476395 C55.2572915,13.1196274 55.5619759,14.0184465 55.5619759,15.1728794 C55.5619759,16.3273123 55.2581378,17.2269778 54.6504525,17.8719029 C54.0427671,18.516828 53.1938824,18.8392857 52.1037728,18.8392857 L49.5901008,18.8392857 L49.5901008,11.5115512 Z M50.5041634,12.3342075 L50.5041634,18.0166295 L52.0428353,18.0166295 C52.8621102,18.0166295 53.4977158,17.7678038 53.9496712,17.2701451 C54.4016266,16.7724863 54.6276009,16.0767901 54.6276009,15.1830357 C54.6276009,14.2858957 54.3999339,13.5868142 53.9445931,13.08577 C53.4892523,12.5847258 52.8553393,12.3342075 52.0428353,12.3342075 L50.5041634,12.3342075 Z M60.193226,19.011942 C59.1979085,19.011942 58.4099607,18.6683256 57.8293588,17.9810826 C57.2487569,17.2938395 56.9584603,16.3594739 56.9584603,15.1779575 C56.9584603,13.9930558 57.2479106,13.0569974 57.8268197,12.3697544 C58.4057289,11.6825113 59.1928304,11.338895 60.1881479,11.338895 C60.9600268,11.338895 61.6201764,11.5589449 62.1686167,11.9990512 C62.7170569,12.4391576 63.0454391,13.01298 63.1537729,13.7205356 L62.224476,13.7205356 C62.1026004,13.2465749 61.8588529,12.8716438 61.493226,12.5957309 C61.1275992,12.3198181 60.6925775,12.1818637 60.1881479,12.1818637 C59.4839777,12.1818637 58.9262359,12.4510017 58.5149057,12.9892856 C58.1035755,13.5275696 57.8979135,14.2571196 57.8979135,15.1779575 C57.8979135,16.0954101 58.1044218,16.8232674 58.5174447,17.3615513 C58.9304676,17.8998353 59.4890558,18.1689732 60.193226,18.1689732 C60.7044265,18.1689732 61.1419872,18.0462531 61.5059213,17.8008091 C61.8698555,17.5553652 62.1093713,17.2210586 62.224476,16.7978794 L63.1537729,16.7978794 C63.0318973,17.4715807 62.7026688,18.0090103 62.1660776,18.4101841 C61.6294864,18.811358 60.9718757,19.011942 60.193226,19.011942 Z M70.6338512,18.8392857 L69.7197886,18.8392857 L69.7197886,15.5029575 L65.6979136,15.5029575 L65.6979136,18.8392857 L64.7838511,18.8392857 L64.7838511,11.5115512 L65.6979136,11.5115512 L65.6979136,14.6803013 L69.7197886,14.6803013 L69.7197886,11.5115512 L70.6338512,11.5115512 L70.6338512,18.8392857 Z M77.3623669,18.8392857 C77.3623669,18.8392857 77.3251277,18.7334925 77.2506481,18.5219029 C77.1761686,18.3103133 77.0906877,18.0665657 76.9942028,17.7906529 C76.897718,17.51474 76.812237,17.2709925 76.7377575,17.0594029 L76.6260388,16.7420201 L73.711195,16.7420201 L72.9748668,18.8392857 L72.0151012,18.8392857 L74.7166637,11.5115512 L75.62057,11.5115512 L78.3221325,18.8392857 L77.3623669,18.8392857 Z M75.1279919,12.6947544 C75.1279919,12.6947544 75.08906,12.8047793 75.011195,13.0248325 C74.93333,13.2448857 74.8376929,13.517409 74.7242809,13.8424106 L74.3840465,14.8174107 C74.2706345,15.1424123 74.1749974,15.4149356 74.0971325,15.6349888 L73.9803356,15.9650669 L76.3568981,15.9650669 L75.2092419,12.6947544 L75.1279919,12.6947544 Z M81.6584607,18.8392857 C81.6584607,18.8392857 81.612758,18.8392857 81.5213513,18.8392857 C81.4299446,18.8392857 81.3233051,18.8392857 81.2014294,18.8392857 C81.0795538,18.8392857 80.9729143,18.8392857 80.8815076,18.8392857 C80.7901009,18.8392857 80.7443982,18.8392857 80.7443982,18.8392857 L80.7443982,12.3342075 L78.38307,12.3342075 L78.38307,11.5115512 L84.0197889,11.5115512 L84.0197889,12.3342075 L81.6584607,12.3342075 L81.6584607,18.8392857 Z" id="MINDCHAT" fill="#4D4D4D" fill-rule="nonzero" mask="url(#mask-2)"></path>
                <path d="M256.272248,18.8392857 L256.272248,13.3650669 L257.105061,13.3650669 L257.105061,14.2283481 L257.186311,14.2283481 C257.325113,13.9270446 257.529083,13.6917604 257.798225,13.5224888 C258.067367,13.3532171 258.411829,13.2685825 258.831623,13.2685825 C259.447772,13.2685825 259.920879,13.4437761 260.250959,13.7941685 C260.581039,14.1445608 260.746076,14.6447512 260.746076,15.2947544 L260.746076,18.8392857 L259.872639,18.8392857 L259.872639,15.5080357 C259.872639,15.0137624 259.766846,14.648141 259.555256,14.4111606 C259.343666,14.1741803 259.019516,14.0556919 258.582795,14.0556919 C258.146074,14.0556919 257.79738,14.1927999 257.536701,14.46702 C257.276023,14.7412401 257.145686,15.1187103 257.145686,15.5994419 L257.145686,18.8392857 L256.272248,18.8392857 Z M264.686701,18.9357701 C263.908052,18.9357701 263.292758,18.6827127 262.840803,18.1765904 C262.388848,17.6704681 262.162873,16.9790036 262.162873,16.1021763 C262.162873,15.2219636 262.388848,14.5296528 262.840803,14.0252231 C263.292758,13.5207935 263.908052,13.2685825 264.686701,13.2685825 C265.465351,13.2685825 266.080644,13.5207935 266.5326,14.0252231 C266.984555,14.5296528 267.21053,15.2219636 267.21053,16.1021763 C267.21053,16.9790036 266.984555,17.6704681 266.5326,18.1765904 C266.080644,18.6827127 265.465351,18.9357701 264.686701,18.9357701 Z M264.686701,18.1486607 C265.204673,18.1486607 265.604148,17.9692354 265.885139,17.6103794 C266.16613,17.2515235 266.306623,16.7487941 266.306623,16.1021763 C266.306623,15.452173 266.16613,14.9485973 265.885139,14.5914341 C265.604148,14.2342708 265.204673,14.0556919 264.686701,14.0556919 C264.16873,14.0556919 263.769255,14.2342708 263.488264,14.5914341 C263.207273,14.9485973 263.06678,15.452173 263.06678,16.1021763 C263.06678,16.7487941 263.207273,17.2515235 263.488264,17.6103794 C263.769255,17.9692354 264.16873,18.1486607 264.686701,18.1486607 Z M275.36092,13.3650669 C275.36092,13.3650669 275.309293,13.5495702 275.206038,13.9185825 C275.102782,14.2875948 274.974984,14.7437751 274.822639,15.2871372 C274.670295,15.8304993 274.517952,16.3738533 274.365608,16.9172154 C274.213263,17.4605775 274.085465,17.9167578 273.982209,18.2857701 C273.878954,18.6547823 273.827327,18.8392857 273.827327,18.8392857 L272.938655,18.8392857 L271.714827,14.6041294 L271.633577,14.6041294 L270.414827,18.8392857 L269.531233,18.8392857 L267.997639,13.3650669 L268.881233,13.3650669 L269.957795,17.7424107 L270.039045,17.7424107 L271.262873,13.3650669 L272.100764,13.3650669 L273.324592,17.7424107 L273.405842,17.7424107 L274.482405,13.3650669 L275.36092,13.3650669 Z" id="now" fill="#4D4D4D" fill-rule="nonzero" mask="url(#mask-2)"></path>
            </g>
            <g id="Group" transform="translate(7.000000, 7.000000)">
                <rect id="Rectangle" fill="#FFFFFF" x="0" y="0" width="16" height="16" rx="4.03199991"></rect>
                <g id="Minchat-logo" transform="translate(3.599998, 2.500000)">
                    <g id="Group-11">
                        <mask id="mask-6" fill="white">
                            <use xlink:href="#path-5"></use>
                        </mask>
                        <g id="Mask-Copy-47">
                            <use fill="black" fill-opacity="1" filter="url(#filter-7)" xlink:href="#path-5"></use>
                            <path stroke="#FA88C4" stroke-width="0.5" d="M8.72312132,10.2498536 L8.72312132,1.76956618 C8.72312132,0.925549972 8.04429072,0.25 7.2003213,0.25 L1.77280002,0.25 C0.933321099,0.25 0.25,0.931385659 0.25,1.76956618 L0.25,7.81738064 C0.25,8.66139685 0.928830605,9.33694682 1.77280002,9.33694682 L4.59696819,9.33694682 C4.6161271,9.33697183 4.6161271,9.33697183 4.63527784,9.33709614 C5.4641175,9.34354379 6.34293678,9.55374781 7.22028625,9.89925227 C7.53057762,10.0214465 7.81883387,10.1523379 8.07801138,10.2833986 C8.2345573,10.3625607 8.34752279,10.4247312 8.39503672,10.453388 C8.61260161,10.5626844 8.72312132,10.4949437 8.72312132,10.2498536 Z" stroke-linejoin="square" fill="url(#linearGradient-4)" fill-rule="evenodd"></path>
                        </g>
                        <g id="left-top-neuron" mask="url(#mask-6)" stroke="#FA88C4" stroke-linecap="round" stroke-width="0.5">
                            <g transform="translate(0.085351, 1.474663)">
                                <path d="M1.42640721,0.934645462 C1.42640721,1.43362236 1.04976896,1.83813608 0.585177085,1.83813608" id="Stroke-13-Copy-63"></path>
                                <path d="M3.80989256,0.934645462 C3.80989256,0.435668569 4.18653081,0.0311548487 4.65112268,0.0311548487" id="Stroke-67-Copy-32"></path>
                                <path d="M3.80989256,0.934645462 C3.80989256,1.43362236 3.41908915,1.83813608 2.93702424,1.83813608 L0.585177085,1.83813608" id="Stroke-13-Copy-64"></path>
                                <path d="M0.88581583,3.79569907 C0.410031038,3.79569907 0.0243570026,3.35750519 0.0243570026,2.8169056 C0.0243570026,2.27635391 0.410031038,1.83813608 0.88581583,1.83813608 L3.95009758,1.83813608" id="Stroke-31-Copy-50" transform="translate(1.987227, 2.816918) scale(1, -1) rotate(-180.000000) translate(-1.987227, -2.816918) "></path>
                                <path d="M1.56661223,2.79569907 L2.27461082,2.7995468 C2.67314039,2.7995468 3.00867964,3.11687972 3.10886746,3.54860792" id="Stroke-57-Copy-32" transform="translate(2.337740, 3.295699) scale(-1, -1) translate(-2.337740, -3.295699) "></path>
                            </g>
                        </g>
                        <g id="right-top-neuron" mask="url(#mask-6)" stroke-linecap="round">
                            <g transform="translate(5.505140, 3.317991)" id="Group-4">
                                <g>
                                    <path d="M2.03355146,0 C2.45773777,0.0501122719 2.80430342,0.472367421 2.80430342,0.979020926 C2.80430342,1.51948166 2.42764458,1.957563 1.9630733,1.957563" id="Stroke-51-Copy-30" stroke="#FA88C4" stroke-width="0.5"></path>
                                    <path d="M0.853510129,1.05991392 C0.853510129,1.55890071 1.25257292,1.96340453 1.74484778,1.96340453 L3.3772005,1.96340453" id="Stroke-63-Copy-63" stroke="#FA88C4" stroke-width="0.5"></path>
                                    <path d="M0.00553098033,0.145389294 C0.470132066,0.145389294 0.846761104,0.549893117 0.846761104,1.04887991" id="Stroke-63-Copy-64" stroke="#FA88C4" stroke-width="0.5"></path>
                                </g>
                            </g>
                        </g>
                        <g id="bot-right-neuron" mask="url(#mask-6)" stroke="#FA88C4" stroke-linecap="round" stroke-width="0.5">
                            <g transform="translate(4.651630, 4.852568)">
                                <path d="M0,1.80698123 C0,1.30799444 0.343919423,0.903490614 0.768170665,0.903490614 L4.20615062,0.903490614" id="Stroke-75-Copy-33" transform="translate(2.103075, 1.403491) scale(1, -1) translate(-2.103075, -1.403491) "></path>
                                <path d="M3.25135965,3.87922727 C2.77555592,3.87922727 2.38982836,3.44102802 2.38982836,2.90044577 C2.38982836,2.35986352 2.77555592,1.92166428 3.25135965,1.92166428 L4.21249363,1.92166428" id="Stroke-25-Copy-58"></path>
                            </g>
                        </g>
                        <g id="bot-left-neuron" mask="url(#mask-6)" stroke="#FA88C4" stroke-linecap="round" stroke-linejoin="round" stroke-width="0.5">
                            <g transform="translate(0.341404, 6.774232)" id="Stroke-35-Copy-36">
                                <path d="M1.46271422,0.00194717805 C1.94425373,0.00194717805 2.33466984,0.440165014 2.33466984,0.980716702 C2.33466984,1.52131629 1.94425373,1.95951017 1.46271422,1.95951017 L0.0213377532,1.95853659"></path>
                            </g>
                        </g>
                    </g>
                </g>
            </g>
        </g>
        <text id="Find-the-Holy-Grail!" font-family="HelveticaNeue, Helvetica Neue" font-size="14" font-weight="normal" letter-spacing="-0.224" fill="#000000">
            <tspan x="63" y="119">Find the Holy Grail!</tspan>
        </text>
    </g>
</svg>