<?xml version="1.0" encoding="UTF-8"?>
<svg width="284px" height="525px" viewBox="0 0 284 525" version="1.1" xmlns="http://www.w3.org/2000/svg" xmlns:xlink="http://www.w3.org/1999/xlink">
    <!-- Generator: Sketch 54.1 (76490) - https://sketchapp.com -->
    <title>Path 3 Copy</title>
    <desc>Created with Sketch.</desc>
    <g id="Landing-page" stroke="none" stroke-width="1" fill="none" fill-rule="evenodd">
        <path d="M-61.6850602,488.988283 C-33.5833415,449.529145 -6.66881115,409.197007 22.620096,370.610868 C32.3948193,357.733336 45.0445652,347.274171 55.3431373,334.811609 C112.475192,265.674666 39.2374661,338.927986 128.650665,250.572414 C134.953721,244.343914 159.116323,239.13069 160.414262,238.771251 C195.690808,229.002115 208.72653,227.113375 234.063592,259.26138 C244.196692,272.118393 253.614714,294.395879 257.563977,307.863222 C259.658574,315.005986 259.294952,322.656886 259.752709,330.086346 C262.859191,380.504974 218.080915,371.762534 181.66595,373.992908 C144.980624,376.239841 108.197023,374.119971 71.5877257,371.276482 C62.8396538,370.597008 10.7456651,363.051241 3.52116132,367.096903 C-8.03212762,373.56665 -13.5066451,387.926922 -18.3781509,400.239702 C-19.9749987,404.27575 -10.4793427,396.479022 -7.05071367,393.817422 C-3.11291548,390.760561 0.214575026,386.97012 3.52116132,383.239551 C11.3065986,374.455837 19.5984929,366.008129 26.2000219,356.303157 C35.139691,343.160862 43.0451003,329.272647 49.9642536,314.963108 C51.48031,311.827744 50.5076021,308.001131 51.2055345,304.589119 C52.0390968,300.514046 56.0924167,288.704945 54.5455993,292.566084 C46.0062235,313.881931 51.3934269,322.342015 48.2552438,350.720391 C46.0524497,370.640108 41.0893308,390.193566 38.9666253,410.121976 C37.9612013,419.561111 33.218193,446.207748 38.894667,438.599477 C68.3014465,399.185092 88.6655621,295.320596 94.4045063,248.76746 C96.666679,230.41718 98.9010902,175.129755 95.5438462,193.311589 C82.310229,264.980923 79.2677092,317.261612 78.1419284,385.074488 C77.8776926,400.991072 73.3493864,448.011037 78.1419284,432.830819 C89.8790405,395.653906 90.6641289,355.817356 99.3756262,317.817454 C100.95199,310.941293 99.2189597,331.938297 99.6574629,338.979194 C101.230464,364.236344 103.97654,389.413776 105.408131,414.679336 C106.667546,436.906237 100.233661,460.463736 107.728787,481.426664 C112.731396,495.418337 112.070881,452.013605 113.467462,437.220276 C207.769013,-561.672089 106.263347,528.100066 114.552833,397.241439 C114.839685,392.713159 116.045472,388.278755 116.399763,383.755252 C116.890008,377.49592 116.204326,358.715497 117.083367,364.932158 C118.815125,377.179309 111.663208,392.016642 118.978269,401.990687 C124.704016,409.797711 130.807679,363.101645 133.765702,364.404463 C140.00714,367.153415 134.787727,378.244765 137.423582,384.5348 C138.282179,386.5837 141.232859,387.054371 143.420108,387.443115 C153.075021,389.159106 162.980793,389.145012 172.647175,390.795173 C184.586633,392.833375 196.279911,396.12793 208.158601,398.494713 C211.135724,399.087893 214.163401,399.427855 217.189369,399.670032 C219.068269,399.820405 220.983138,399.969575 222.844092,399.670032 C223.282356,399.599488 223.395773,398.974435 223.671613,398.626636" id="Path-3-Copy" stroke="#FFFFFF" stroke-width="11" transform="translate(99.110386, 250.234942) rotate(-15.000000) translate(-99.110386, -250.234942) "></path>
    </g>
</svg>